<?xml version="1.0" encoding="utf-8"?>
<!-- Generator: Adobe Illustrator 23.0.1, SVG Export Plug-In . SVG Version: 6.00 Build 0)  -->
<svg version="1.1" xmlns="http://www.w3.org/2000/svg" xmlns:xlink="http://www.w3.org/1999/xlink" x="0px" y="0px"
	 viewBox="0 0 792 612" style="enable-background:new 0 0 792 612;" xml:space="preserve">
<style type="text/css">
	.st0{fill:#006838;stroke:#006838;stroke-miterlimit:10;}
	.st1{fill:#F1F2F2;}
</style>
<g id="Line">
	<path class="st0" d="M761.1,308.8c-3-3-8.2-3-11.2,0l-60.7,60.7H439.8L273.8,203.6c-1.2-3-4.2-5-7.5-5h-40.7c-0.5,0-1.2,0-1.7,0.2
		c-2,0-4,0.7-5.7,2.2L47.4,371.8l-11.7,0.7c-4.5,0.2-8,4-7.7,8.5c0.2,4.5,4,8,8.5,7.7l14-0.7c1.2,0,2.2-0.2,3.2-0.7
		c1.2-0.5,2.2-1,3.2-2l170.4-170.4h34.5L430,383c1,1,2.2,1.7,3.5,2c1,0.5,2.2,1,3.7,1h253.9c0.2,0,0.2,0,0.5,0
		c2.2,0.2,4.5-0.5,6.2-2.2l63.2-63.2C764.4,317,764.4,311.8,761.1,308.8z"/>
</g>
<g id="Stops">
	<circle id="Hynes" class="st1" cx="512.7" cy="378" r="5.7"/>
	<circle id="Kenmore_Sq" class="st1" cx="451" cy="378" r="5.7"/>
	<circle id="Blandford_St" class="st1" cx="416.5" cy="357.8" r="5.7"/>
	<circle id="BU_East" class="st1" cx="397.8" cy="339.3" r="5.7"/>
	<circle id="BU_Central" class="st1" cx="376.3" cy="317.5" r="5.7"/>
	<circle id="BU_West" class="st1" cx="357.8" cy="299.3" r="5.7"/>
	<circle id="Saint_Paul_St" class="st1" cx="336.1" cy="277.5" r="5.7"/>
	<circle id="Pleasant_St" class="st1" cx="317.3" cy="258.8" r="5.7"/>
	<circle id="Babcock_St" class="st1" cx="296.3" cy="237.8" r="5.7"/>
	<circle id="Packards_Corner" class="st1" cx="276.6" cy="218.1" r="5.7"/>
	<circle id="Harvard_Ave" class="st1" cx="245.1" cy="206.3" r="5.7"/>
	<circle id="Griggs_St" class="st1" cx="210.1" cy="220.3" r="5.7"/>
	<circle id="Allston_St" class="st1" cx="189.9" cy="240.6" r="5.7"/>
	<circle id="Warren_St" class="st1" cx="169.4" cy="260.8" r="5.7"/>
	<circle id="Washington_St" class="st1" cx="149.1" cy="280.8" r="5.7"/>
	<circle id="Sutherland_Rd" class="st1" cx="128.9" cy="301" r="5.7"/>
	
		<ellipse id="Chiswick_Rd" transform="matrix(0.9951 -9.853745e-02 9.853745e-02 0.9951 -31.1292 12.2699)" class="st1" cx="108.7" cy="321.3" rx="5.7" ry="5.7"/>
	<circle id="Chestnut_Hill_Ave" class="st1" cx="88.7" cy="342.5" r="5.7"/>
	<circle id="South_St" class="st1" cx="68.7" cy="362.8" r="5.7"/>
	<circle id="BC" class="st1" cx="37.9" cy="380.5" r="5.7"/>
	<circle id="Copley" class="st1" cx="572" cy="378" r="5.7"/>
	<circle id="Arlington" class="st1" cx="631.2" cy="378" r="5.7"/>
	<circle id="Park_St" class="st1" cx="384.6" cy="258.3" r="2.3"/>
	<circle id="Boylston" class="st1" cx="691.9" cy="376.8" r="5.7"/>
</g>
</svg>
